<svg xmlns="http://www.w3.org/2000/svg" viewBox="0 0 250 200">
  <!-- Background Shield -->
  <path d="M125 10 L230 50 L230 120 C230 160 190 190 125 190 C60 190 20 160 20 120 L20 50 Z" fill="#2D3748" stroke="#4A5568" stroke-width="3"/>
  
  <!-- Branch Lines -->
  <path d="M80 60 L80 140 L170 140" stroke="#6366F1" stroke-width="5" fill="none" />
  <path d="M80 100 L120 100" stroke="#6366F1" stroke-width="5" fill="none" />
  <path d="M80 80 L150 80" stroke="#6366F1" stroke-width="5" fill="none" />
  
  <!-- Nodes -->
  <circle cx="80" cy="60" r="8" fill="#6366F1" />
  <circle cx="80" cy="80" r="8" fill="#6366F1" />
  <circle cx="80" cy="100" r="8" fill="#6366F1" />
  <circle cx="80" cy="140" r="8" fill="#6366F1" />
  <circle cx="120" cy="100" r="8" fill="#6366F1" />
  <circle cx="150" cy="80" r="8" fill="#6366F1" />
  <circle cx="170" cy="140" r="8" fill="#6366F1" />
  
  <!-- Padlock -->
  <rect x="105" y="30" width="40" height="30" rx="4" fill="#4A5568" />
  <rect x="110" y="20" width="30" height="20" rx="10" fill="none" stroke="#4A5568" stroke-width="6" />
  <circle cx="125" cy="45" r="5" fill="#6366F1" />
  
  <!-- Protection Text -->
  <text x="125" y="170" fill="#F7FAFC" font-family="Arial" font-size="14" text-anchor="middle" font-weight="bold">BRANCH PROTECTION</text>
</svg>