<svg xmlns="http://www.w3.org/2000/svg" viewBox="0 0 250 200">
  <!-- Main Background -->
  <rect x="20" y="20" width="210" height="160" rx="10" fill="#1A202C" stroke="#4A5568" stroke-width="3"/>
  
  <!-- Dashboard Header -->
  <rect x="20" y="20" width="210" height="30" rx="10" fill="#2D3748" />
  <circle cx="35" cy="35" r="5" fill="#FC8181" />
  <circle cx="50" cy="35" r="5" fill="#F6E05E" />
  <circle cx="65" cy="35" r="5" fill="#68D391" />
  <text x="140" y="38" font-family="Arial" font-size="10" fill="#E2E8F0" text-anchor="middle">Workflow Analytics</text>
  
  <!-- PR Timeline Visualization -->
  <rect x="35" y="60" width="180" height="40" rx="4" fill="#2D3748" stroke="#4A5568" stroke-width="1"/>
  
  <!-- PR Stages -->
  <circle cx="45" cy="80" r="6" fill="#6366F1" stroke="#FFFFFF" stroke-width="1"/>
  <circle cx="85" cy="80" r="6" fill="#8B5CF6" stroke="#FFFFFF" stroke-width="1"/>
  <circle cx="125" cy="80" r="6" fill="#EC4899" stroke="#FFFFFF" stroke-width="1"/>
  <circle cx="165" cy="80" r="6" fill="#F59E0B" stroke="#FFFFFF" stroke-width="1"/>
  <circle cx="205" cy="80" r="6" fill="#10B981" stroke="#FFFFFF" stroke-width="1"/>
  
  <!-- Connection Lines -->
  <line x1="51" y1="80" x2="79" y2="80" stroke="#4A5568" stroke-width="2"/>
  <line x1="91" y1="80" x2="119" y2="80" stroke="#4A5568" stroke-width="2"/>
  <line x1="131" y1="80" x2="159" y2="80" stroke="#4A5568" stroke-width="2"/>
  <line x1="171" y1="80" x2="199" y2="80" stroke="#4A5568" stroke-width="2"/>
  
  <!-- Stage Labels -->
  <text x="45" y="100" font-family="Arial" font-size="7" fill="#E2E8F0" text-anchor="middle">Open</text>
  <text x="85" y="100" font-family="Arial" font-size="7" fill="#E2E8F0" text-anchor="middle">Review</text>
  <text x="125" y="100" font-family="Arial" font-size="7" fill="#E2E8F0" text-anchor="middle">Changes</text>
  <text x="165" y="100" font-family="Arial" font-size="7" fill="#E2E8F0" text-anchor="middle">Approve</text>
  <text x="205" y="100" font-family="Arial" font-size="7" fill="#E2E8F0" text-anchor="middle">Merge</text>
  
  <!-- PR Cards -->
  <rect x="35" y="115" width="65" height="18" rx="3" fill="#6366F1" opacity="0.8"/>
  <text x="41" y="127" font-family="Arial" font-size="8" fill="#FFFFFF">PR #234</text>
  
  <rect x="85" y="115" width="90" height="18" rx="3" fill="#8B5CF6" opacity="0.8"/>
  <text x="91" y="127" font-family="Arial" font-size="8" fill="#FFFFFF">PR #235</text>
  
  <rect x="125" y="138" width="45" height="18" rx="3" fill="#EC4899" opacity="0.8"/>
  <text x="131" y="150" font-family="Arial" font-size="8" fill="#FFFFFF">PR #236</text>
  
  <rect x="165" y="138" width="45" height="18" rx="3" fill="#F59E0B" opacity="0.8"/>
  <text x="171" y="150" font-family="Arial" font-size="8" fill="#FFFFFF">PR #237</text>
  
  <!-- Timeline Indicators -->
  <line x1="35" y1="160" x2="215" y2="160" stroke="#4A5568" stroke-width="1"/>
  <line x1="35" y1="156" x2="35" y2="164" stroke="#4A5568" stroke-width="1"/>
  <line x1="95" y1="156" x2="95" y2="164" stroke="#4A5568" stroke-width="1"/>
  <line x1="155" y1="156" x2="155" y2="164" stroke="#4A5568" stroke-width="1"/>
  <line x1="215" y1="156" x2="215" y2="164" stroke="#4A5568" stroke-width="1"/>
  
  <!-- Time Labels -->
  <text x="35" y="172" font-family="Arial" font-size="7" fill="#E2E8F0" text-anchor="middle">Day 1</text>
  <text x="95" y="172" font-family="Arial" font-size="7" fill="#E2E8F0" text-anchor="middle">Day 2</text>
  <text x="155" y="172" font-family="Arial" font-size="7" fill="#E2E8F0" text-anchor="middle">Day 3</text>
  <text x="215" y="172" font-family="Arial" font-size="7" fill="#E2E8F0" text-anchor="middle">Day 4</text>
  
  <!-- Title -->
  <text x="125" y="190" fill="#F7FAFC" font-family="Arial" font-size="12" text-anchor="middle" font-weight="bold">WORKFLOW MONITORING</text>
</svg>